<svg xmlns="http://www.w3.org/2000/svg" width="25.461" height="25.461" viewBox="0 0 25.461 25.461">
  <g id="noun-search-8071305" transform="translate(-12.5 -12.499)">
    <path id="Path_4046" data-name="Path 4046" d="M32.617,33.979a12.2,12.2,0,1,1,1.49-1.513l3.559,3.7a1.061,1.061,0,0,1-1.529,1.472Zm-.7-2.252a9.932,9.932,0,1,0-.044.045l.044-.045Zm-5.2-10.56.332-.705a.708.708,0,0,1,1.3,0l.333.705.7.332a.708.708,0,0,1,0,1.3l-.7.33-.333.707a.708.708,0,0,1-1.3,0l-.332-.707-.7-.33a.708.708,0,0,1,0-1.3Zm-5.669,3.814c.037-.065.146-.245.221-.4.314-.622.684-1.5.684-1.5a.707.707,0,0,1,1.3,0s.371.882.684,1.5c.076.15.183.33.221.4.065.038.245.146.4.221.621.314,1.5.684,1.5.684a.708.708,0,0,1,0,1.3s-.882.371-1.5.684c-.15.076-.332.183-.4.221-.038.064-.146.247-.221.4-.313.621-.684,1.5-.684,1.5a.708.708,0,0,1-1.3,0s-.37-.883-.684-1.5c-.076-.151-.184-.333-.221-.4-.064-.04-.245-.147-.4-.221-.621-.314-1.5-.686-1.5-.686a.707.707,0,0,1,0-1.3s.882-.37,1.5-.684C20.808,25.128,20.99,25.02,21.054,24.982Z" transform="translate(0)" fill="#b2b2b2" fill-rule="evenodd"/>
  </g>
</svg>
