<svg xmlns="http://www.w3.org/2000/svg" width="23.618" height="25.304" viewBox="0 0 23.618 25.304">
  <g id="noun-ai-7865720" transform="translate(-8.001 -5.001)">
    <path id="Path_4029" data-name="Path 4029" d="M12.785,57.391a.594.594,0,0,1,1.116,0l.89,2.442A1.78,1.78,0,0,0,15.854,60.9l2.442.89a.594.594,0,0,1,0,1.116l-2.442.89a1.78,1.78,0,0,0-1.063,1.063L13.9,67.3a.594.594,0,0,1-1.116,0l-.89-2.442a1.78,1.78,0,0,0-1.063-1.063L8.391,62.9a.594.594,0,0,1,0-1.116l2.442-.89A1.78,1.78,0,0,0,11.9,59.832Z" transform="translate(0 -37.38)" fill="#8341ff"/>
    <path id="Path_4030" data-name="Path 4030" d="M46.547,24.533a.813.813,0,0,1,1.527,0l1.217,3.341a2.44,2.44,0,0,0,1.455,1.454l3.341,1.218a.813.813,0,0,1,0,1.527L50.746,33.29a2.444,2.444,0,0,0-1.455,1.455l-1.217,3.341a.813.813,0,0,1-1.527,0L45.33,34.745a2.444,2.444,0,0,0-1.455-1.455l-3.341-1.217a.813.813,0,0,1,0-1.527l3.341-1.218a2.44,2.44,0,0,0,1.455-1.454Z" transform="translate(-23.002 -13.657)" fill="#8341ff"/>
    <path id="Path_4031" data-name="Path 4031" d="M14.659,5.381a.577.577,0,0,1,1.085,0l.867,2.377a1.737,1.737,0,0,0,1.036,1.036l2.377.865a.578.578,0,0,1,0,1.086l-2.377.867a1.737,1.737,0,0,0-1.036,1.036l-.867,2.377a.577.577,0,0,1-1.085,0l-.867-2.377a1.737,1.737,0,0,0-1.036-1.036l-2.377-.867a.578.578,0,0,1,0-1.086l2.377-.865a1.737,1.737,0,0,0,1.036-1.036Z" transform="translate(-1.437 0)" fill="#8341ff"/>
  </g>
</svg>
