<svg xmlns="http://www.w3.org/2000/svg" width="17.733" height="19" viewBox="0 0 17.733 19">
  <g id="noun-ai-7865720" transform="translate(-8.001 -5.001)">
    <path id="Path_4029" data-name="Path 4029" d="M11.593,57.294a.446.446,0,0,1,.838,0l.668,1.833a1.336,1.336,0,0,0,.8.8l1.833.668a.446.446,0,0,1,0,.838L13.9,62.1a1.336,1.336,0,0,0-.8.8l-.668,1.833a.446.446,0,0,1-.838,0L10.925,62.9a1.336,1.336,0,0,0-.8-.8l-1.833-.668a.446.446,0,0,1,0-.838l1.833-.668a1.336,1.336,0,0,0,.8-.8Z" transform="translate(0 -41.022)" fill="#fff"/>
    <path id="Path_4030" data-name="Path 4030" d="M44.916,24.4a.61.61,0,0,1,1.146,0l.914,2.509A1.832,1.832,0,0,0,48.068,28l2.509.915a.61.61,0,0,1,0,1.146l-2.509.914a1.835,1.835,0,0,0-1.093,1.093l-.914,2.509a.61.61,0,0,1-1.146,0L44,32.068a1.835,1.835,0,0,0-1.093-1.093L40.4,30.062a.61.61,0,0,1,0-1.146L42.909,28A1.832,1.832,0,0,0,44,26.909Z" transform="translate(-25.243 -14.988)" fill="#fff"/>
    <path id="Path_4031" data-name="Path 4031" d="M13.5,5.286a.434.434,0,0,1,.815,0l.651,1.785a1.3,1.3,0,0,0,.778.778l1.785.65a.434.434,0,0,1,0,.816l-1.785.651a1.3,1.3,0,0,0-.778.778l-.651,1.785a.434.434,0,0,1-.815,0l-.651-1.785a1.3,1.3,0,0,0-.778-.778l-1.785-.651a.434.434,0,0,1,0-.816l1.785-.65a1.3,1.3,0,0,0,.778-.778Z" transform="translate(-1.577 0)" fill="#fff"/>
  </g>
</svg>
