<svg id="Group_28" data-name="Group 28" xmlns="http://www.w3.org/2000/svg" width="9" height="9" viewBox="0 0 9 9">
  <path id="Path_4050" data-name="Path 4050" d="M-1152.377-385.011a.818.818,0,0,0-.578.24.818.818,0,0,0,0,1.157l3.1,3.1-3.1,3.1a.818.818,0,0,0,0,1.157.818.818,0,0,0,1.157,0l3.1-3.1,3.1,3.1a.818.818,0,0,0,1.157,0,.818.818,0,0,0,0-1.157l-3.1-3.1,3.1-3.1a.818.818,0,0,0,0-1.157.818.818,0,0,0-.578-.24.818.818,0,0,0-.578.24l-3.1,3.1-3.1-3.1A.818.818,0,0,0-1152.377-385.011Z" transform="translate(1153.195 385.011)" fill="#ff4a4a"/>
</svg>
