<svg id="Component_6_2" data-name="Component 6 – 2" xmlns="http://www.w3.org/2000/svg" width="26" height="26" viewBox="0 0 26 26">
  <rect id="Rectangle_79" data-name="Rectangle 79" width="26" height="26" rx="9" fill="#ff1f53"/>
  <g id="noun-close-5115237" transform="translate(-20.546 -20.546)">
    <g id="Group_28" data-name="Group 28" transform="translate(28.501 28.5)">
      <path id="Path_4050" data-name="Path 4050" d="M-1152.278-385.011a.917.917,0,0,0-.648.269.917.917,0,0,0,0,1.3l3.479,3.48-3.479,3.48a.917.917,0,0,0,0,1.3.917.917,0,0,0,1.3,0l3.48-3.48,3.48,3.48a.917.917,0,0,0,1.3,0,.917.917,0,0,0,0-1.3l-3.479-3.48,3.479-3.48a.917.917,0,0,0,0-1.3.917.917,0,0,0-.648-.269.917.917,0,0,0-.649.269l-3.48,3.48-3.48-3.48A.917.917,0,0,0-1152.278-385.011Z" transform="translate(1153.195 385.011)" fill="#fff"/>
    </g>
  </g>
</svg>
