<?xml version="1.0" encoding="UTF-8"?>
<svg id="noun-external-link-2925192" xmlns="http://www.w3.org/2000/svg" version="1.1" viewBox="0 0 11.4219999 11.4219999">
  <!-- Generator: Adobe Illustrator 30.2.1, SVG Export Plug-In . SVG Version: 2.1.1 Build 1)  -->
  <defs>
    <style>
      .st0 {
        fill: #8341ff;
      }
    </style>
  </defs>
  <g id="Group_67">
    <path id="Path_4085" class="st0" d="M0,2.9993217v5.4233565c0,1.6564797,1.3428421,2.9993217,2.9993217,2.9993217h5.4233565c1.6564797,0,2.9993217-1.3428421,2.9993217-2.9993217V2.9993217C11.4219999,1.3428421,10.0791579,0,8.4226782,0H2.9993217C1.3428421,0,0,1.3428421,0,2.9993217ZM9.1379995,6.6170001l-1.7129993-1.717-2.6890001,2.6919999c-.6040401.5379601-.8442307,1.3757057-.6170001,2.1519995-1.2189999-.0899992-1.835-.6769991-1.835-1.7439995.1129508-.7159672.4550669-1.3759885.9749999-1.881l2.6890001-2.6919999-1.7139997-1.714h4.9000006l.0039988,4.904Z"/>
  </g>
</svg>