<svg xmlns="http://www.w3.org/2000/svg" width="22.516" height="21.872" viewBox="0 0 22.516 21.872">
  <g id="noun-image-editing-4360399" transform="translate(-1 -1.91)">
    <path id="Path_4074" data-name="Path 4074" d="M22.812,4.52a.706.706,0,0,0,.7-.7V2.726a.706.706,0,0,0-.7-.7H21.722a.706.706,0,0,0-.7.7v.091H13.507v-.2a.706.706,0,0,0-.7-.7H11.713a.706.706,0,0,0-.7.7v.2H3.575V2.726a.706.706,0,0,0-.7-.7H1.781a.706.706,0,0,0-.7.7V3.817a.706.706,0,0,0,.7.7h.127V11.6H1.7a.706.706,0,0,0-.7.7v1.091a.706.706,0,0,0,.7.7h.2v7.079H1.774a.706.706,0,0,0-.7.7V22.97a.706.706,0,0,0,.7.7H2.865a.706.706,0,0,0,.7-.7v-.095h7.437v.2a.706.706,0,0,0,.7.7H12.8a.706.706,0,0,0,.7-.7v-.2h7.508v.095a.706.706,0,0,0,.7.7h1.1a.706.706,0,0,0,.7-.7V21.879a.706.706,0,0,0-.7-.7h-.2V14.1h.2a.706.706,0,0,0,.7-.7V12.306a.706.706,0,0,0-.7-.7h-.2V4.52Zm0-1.815a.023.023,0,0,1,.021.021l-.021,1.112L21.7,3.817l.021-1.112Zm-11.1-.113H12.8a.023.023,0,0,1,.021.021L12.8,3.725,11.692,3.7ZM1.756,3.817l.021-1.112H2.868a.023.023,0,0,1,.021.021L2.872,3.838ZM1.683,13.4,1.7,12.281l1.112.021v1.091a.023.023,0,0,1-.021.021Zm.07,9.576.021-1.112H2.865a.023.023,0,0,1,.021.021l-.021,1.112Zm11.05.13-1.112-.021.021-1.112H12.8a.023.023,0,0,1,.021.021Zm10.03-1.221-.021,1.112L21.7,22.973l.021-1.112h1.091A.023.023,0,0,1,22.834,21.882Zm0-9.58v1.091a.023.023,0,0,1-.021.021L21.7,13.393l.021-1.112Zm-.908-.7h-.2a.706.706,0,0,0-.7.7v1.091a.706.706,0,0,0,.7.7h.2v7.079h-.2a.706.706,0,0,0-.7.7v.313H13.507v-.2a.706.706,0,0,0-.7-.7H11.713a.706.706,0,0,0-.7.7v.2H3.568v-.313a.706.706,0,0,0-.7-.7H2.59V14.1h.2a.706.706,0,0,0,.7-.7V12.306a.706.706,0,0,0-.7-.7h-.2V4.52h.281a.706.706,0,0,0,.7-.7V3.5h7.434v.2a.706.706,0,0,0,.7.7H12.8a.706.706,0,0,0,.7-.7V3.5h7.508v.317a.706.706,0,0,0,.7.7h.2V11.6Z" fill="#fff"/>
    <path id="Path_4075" data-name="Path 4075" d="M24.022,11.13H12.43a2.281,2.281,0,0,0-2.28,2.28V24.123a2.281,2.281,0,0,0,2.28,2.28H24.022a2.284,2.284,0,0,0,2.28-2.28V13.41A2.286,2.286,0,0,0,24.022,11.13ZM13.077,12.889H23.371a1.167,1.167,0,0,1,1.168,1.168v7.652l-1.562-2.378a1.1,1.1,0,0,0-1.84,0L19.42,21.948l-3.107-4.742a1.1,1.1,0,0,0-1.84,0l-2.561,3.905V14.057A1.162,1.162,0,0,1,13.077,12.889Z" transform="translate(-5.931 -5.976)" fill="#fff"/>
    <path id="Path_4076" data-name="Path 4076" d="M34.086,25.339a1.325,1.325,0,1,0-1.326-1.323A1.326,1.326,0,0,0,34.086,25.339Z" transform="translate(-20.586 -13.469)" fill="#fff"/>
  </g>
</svg>
