<svg xmlns="http://www.w3.org/2000/svg" width="14.791" height="17.401" viewBox="0 0 14.791 17.401">
  <g id="noun-reset-5247524" transform="translate(-9 -7)">
    <path id="Path_4055" data-name="Path 4055" d="M17.014,7.258a.87.87,0,0,1-.007,1.23l-1.29,1.275H16.4A7.319,7.319,0,1,1,9,17.082a.87.87,0,1,1,1.74,0A5.656,5.656,0,1,0,16.4,11.5h-.678l1.29,1.275a.87.87,0,1,1-1.223,1.238l-2.8-2.764a.87.87,0,0,1,0-1.238l2.8-2.764A.87.87,0,0,1,17.014,7.258Z" transform="translate(0 0)" fill="#fff" fill-rule="evenodd"/>
  </g>
</svg>
