<svg xmlns="http://www.w3.org/2000/svg" width="39" height="39" viewBox="0 0 39 39">
  <g id="Group_10" data-name="Group 10" transform="translate(-398 -732)">
    <circle id="Ellipse_2" data-name="Ellipse 2" cx="19.5" cy="19.5" r="19.5" transform="translate(398 732)" fill="#8341ff"/>
    <g id="noun-search-8071305" transform="translate(395.23 729.232)">
      <path id="Path_4046" data-name="Path 4046" d="M27.938,28.983a9.364,9.364,0,1,1,1.143-1.161l2.731,2.837a.814.814,0,0,1-1.173,1.13ZM27.4,27.255a7.622,7.622,0,1,0-.034.035l.034-.035Zm-3.989-8.1.254-.541a.543.543,0,0,1,1,0l.255.541.54.254a.543.543,0,0,1,0,1l-.54.253-.255.542a.543.543,0,0,1-1,0l-.254-.542-.54-.253a.543.543,0,0,1,0-1Zm-4.35,2.927c.028-.05.112-.188.17-.3.241-.477.525-1.154.525-1.154a.542.542,0,0,1,1,0s.285.677.525,1.154c.058.115.14.253.17.3.05.03.188.112.3.17.476.241,1.153.525,1.153.525a.543.543,0,0,1,0,1s-.677.285-1.153.525c-.115.058-.254.14-.3.17-.03.049-.112.189-.17.3-.24.476-.525,1.154-.525,1.154a.543.543,0,0,1-1,0s-.284-.678-.525-1.153c-.058-.116-.141-.255-.17-.3-.049-.031-.188-.113-.3-.17-.476-.241-1.153-.526-1.153-.526a.542.542,0,0,1,0-1s.677-.284,1.153-.525C18.876,22.19,19.015,22.108,19.064,22.078Z" transform="translate(0)" fill="#fff" fill-rule="evenodd"/>
    </g>
  </g>
</svg>
