<svg xmlns="http://www.w3.org/2000/svg" width="23.613" height="23.577" viewBox="0 0 23.613 23.577">
  <g id="noun-image-8362259" transform="translate(-9.922 -5.135)">
    <path id="Path_4047" data-name="Path 4047" d="M34.731,11.072,31.579,9.348,29.855,6.2a.926.926,0,0,0-1.563,0L26.68,9.143H15.1a3.523,3.523,0,0,0-3.519,3.519V25.834a3.518,3.518,0,0,0,3.519,3.51H28.265a3.519,3.519,0,0,0,3.519-3.51V14.247l2.946-1.611a.891.891,0,0,0,0-1.565ZM15.1,27.561a1.734,1.734,0,0,1-1.736-1.727V18.96l.7-.946a2.612,2.612,0,0,1,2.111-1.065h0a2.607,2.607,0,0,1,2.108,1.059l7.1,9.554H15.1ZM30,25.834a1.734,1.734,0,0,1-1.736,1.727h-.649L23.853,22.5l.988-1.335a2.593,2.593,0,0,1,2.1-1.068h0a2.593,2.593,0,0,1,2.1,1.063L30,22.431Zm0-6.279a4.343,4.343,0,0,0-3.05-1.237h-.006a4.359,4.359,0,0,0-3.538,1.791l-.665.9-3.023-4.065a4.369,4.369,0,0,0-3.538-1.776h-.007a4.372,4.372,0,0,0-2.809,1.013V12.661A1.738,1.738,0,0,1,15.1,10.925h8.582l-.267.146a.891.891,0,0,0,0,1.565l3.151,1.723L28.29,17.51a.892.892,0,0,0,1.565,0L30,17.242Zm.494-6.634a.9.9,0,0,0-.354.354l-1.068,1.95L28,13.275a.889.889,0,0,0-.354-.354L25.7,11.854l1.95-1.068A.9.9,0,0,0,28,10.432l1.068-1.95,1.068,1.95a.889.889,0,0,0,.354.354l1.95,1.068Z" transform="translate(-1.66 -0.632)" fill="#fff"/>
  </g>
</svg>
