<svg xmlns="http://www.w3.org/2000/svg" width="11.993" height="11.992" viewBox="0 0 11.993 11.992">
  <g id="noun-upload-8339619" transform="translate(-8.332 -8.338)">
    <path id="Path_4051" data-name="Path 4051" d="M19.725,58.332a.6.6,0,0,0-.6.6v2.4a.6.6,0,0,1-.6.6h-8.4a.6.6,0,0,1-.6-.6v-2.4a.6.6,0,0,0-1.2,0v2.4a1.8,1.8,0,0,0,1.8,1.8h8.4a1.8,1.8,0,0,0,1.8-1.8v-2.4a.6.6,0,0,0-.6-.6Z" transform="translate(0 -42.799)" fill="#959bb1"/>
    <path id="Path_4052" data-name="Path 4052" d="M31.177,17.331a.6.6,0,0,0,.6-.6V10.384l1.547,1.547a.6.6,0,1,0,.848-.848L31.6,8.513c-.006-.006-.013-.007-.018-.012a.593.593,0,0,0-.83.012l-2.57,2.57a.6.6,0,0,0,.848.848l1.547-1.547v6.348a.6.6,0,0,0,.6.6Z" transform="translate(-16.848)" fill="#959bb1"/>
  </g>
</svg>
