<svg xmlns="http://www.w3.org/2000/svg" width="12.021" height="11.992" viewBox="0 0 12.021 11.992">
  <g id="noun-link-6348154" transform="translate(-4 -4.037)">
    <path id="Path_4053" data-name="Path 4053" d="M16.021,6.939a2.908,2.908,0,0,1-.858,2.072l-2.054,2.054A.751.751,0,1,1,12.046,10L14.1,7.948a1.427,1.427,0,0,0,0-2.018,1.459,1.459,0,0,0-2.018,0L10.028,7.984A.751.751,0,0,1,8.966,6.921l2.054-2.054a3,3,0,0,1,4.143,0,2.91,2.91,0,0,1,.858,2.071ZM9.993,12.056,7.939,14.109a1.46,1.46,0,0,1-2.018,0,1.428,1.428,0,0,1,0-2.018l2.054-2.054A.751.751,0,0,0,6.912,8.975L4.858,11.028A2.93,2.93,0,1,0,9,15.171l2.054-2.054a.751.751,0,0,0-1.062-1.062Zm.514-3.594L8.452,10.516a.751.751,0,1,0,1.062,1.062l2.054-2.054a.751.751,0,1,0-1.062-1.062Z" fill="#959bb1"/>
  </g>
</svg>
