<?xml version="1.0" encoding="UTF-8"?>
<svg id="Layer_1" xmlns="http://www.w3.org/2000/svg" version="1.1" viewBox="0 0 271.5759319 32">
  <defs>
    <style>
      .st0 {
        fill: #2c2c2c;
      }

      .st1 {
        isolation: isolate;
      }

      .st2 {
        fill: #8341ff;
      }

      .st3 {
        fill: #b2b2b2;
      }
    </style>
  </defs>
  <g id="Group_50">
    <g id="Powered_by_LaTrobe" class="st1">
      <g class="st1">
        <path class="st3" d="M167.2363281,15.5216675c0,.8203125-.2695312,1.4482422-.8066406,1.8847656-.5371094.4375-1.3007812.65625-2.2929688.65625h-.8164062v2.9375h-1.2832031v-7.8525391h2.2607422c.9814453,0,1.7158203.2001953,2.2050781.6015625.4882812.4013672.7333984.9921875.7333984,1.7724609ZM163.3203125,16.982605h.6816406c.6591797,0,1.1425781-.1142578,1.4511719-.34375.3076172-.2294922.4609375-.5869141.4609375-1.0742188,0-.4511719-.1367188-.7880859-.4130859-1.0097656s-.7060547-.3330078-1.2890625-.3330078h-.8916016v2.7607422Z"/>
        <path class="st3" d="M173.9394531,18.0197144c0,.9697266-.25,1.7275391-.7470703,2.2714844s-1.1904297.8164062-2.0791016.8164062c-.5546875,0-1.0449219-.125-1.4707031-.3759766-.4267578-.2509766-.7539062-.6103516-.9833984-1.0791016-.2294922-.4697266-.34375-1.0136719-.34375-1.6328125,0-.9638672.2470703-1.7158203.7412109-2.2558594.4941406-.5410156,1.1904297-.8115234,2.0898438-.8115234.859375,0,1.5390625.2763672,2.0410156.8300781.5009766.5527344.7519531,1.2988281.7519531,2.2373047ZM169.6152344,18.0197144c0,1.3710938.5068359,2.0566406,1.5195312,2.0566406,1.0029297,0,1.5039062-.6855469,1.5039062-2.0566406,0-1.3574219-.5039062-2.0361328-1.5136719-2.0361328-.5302734,0-.9140625.1757812-1.1523438.5263672s-.3574219.8535156-.3574219,1.5097656Z"/>
        <path class="st3" d="M180.2607422,21.0001831l-.7685547-2.7714844c-.0927734-.2939453-.2607422-.9755859-.5039062-2.046875h-.0488281c-.2070312.9667969-.3730469,1.6533203-.4941406,2.0576172l-.7890625,2.7607422h-1.3964844l-1.6660156-5.9404297h1.2890625l.7578125,2.9267578c.171875.7236328.2929688,1.34375.3652344,1.859375h.0322266c.0361328-.2617188.0908203-.5615234.1630859-.9003906.0742188-.3378906.1376953-.5917969.1914062-.7597656l.9023438-3.1259766h1.3857422l.8759766,3.1259766c.0527344.1757812.1210938.4443359.2011719.8056641s.1279297.6425781.1425781.8427734h.0429688c.0527344-.4394531.1787109-1.0556641.375-1.8476562l.7685547-2.9267578h1.2675781l-1.6757812,5.9404297h-1.4179688Z"/>
        <path class="st3" d="M186.96875,21.107605c-.9238281,0-1.6455078-.2695312-2.1669922-.8085938-.5205078-.5390625-.78125-1.28125-.78125-2.2265625,0-.9697266.2412109-1.7324219.7255859-2.2871094.4824219-.5556641,1.1464844-.8330078,1.9921875-.8330078.7841797,0,1.4042969.2382812,1.8583984.7138672.4541016.4765625.6826172,1.1318359.6826172,1.9667969v.6816406h-3.9589844c.0175781.5761719.1738281,1.0195312.4667969,1.3291016.2939453.3095703.7070312.4648438,1.2412109.4648438.3505859,0,.6777344-.0332031.9804688-.0996094.3017578-.0664062.6279297-.1757812.9746094-.3300781v1.0263672c-.3076172.1464844-.6201172.25-.9345703.3105469-.3144531.0615234-.6748047.0917969-1.0800781.0917969ZM186.7382812,15.9083862c-.4003906,0-.7226562.1269531-.9638672.3808594-.2421875.2548828-.3857422.625-.4326172,1.1123047h2.6962891c-.0068359-.4902344-.1259766-.8623047-.3544922-1.1142578-.2285156-.2529297-.5449219-.3789062-.9453125-.3789062Z"/>
        <path class="st3" d="M193.7265625,14.9523315c.2539062,0,.4628906.0175781.6279297.0537109l-.1240234,1.1757812c-.1787109-.0429688-.3652344-.0644531-.5585938-.0644531-.5039062,0-.9140625.1650391-1.2265625.4941406-.3134766.3300781-.4707031.7578125-.4707031,1.2841797v3.1044922h-1.2617188v-5.9404297h.9882812l.1660156,1.0478516h.0644531c.1972656-.3554688.4541016-.6357422.7714844-.84375.3164062-.2080078.6582031-.3115234,1.0234375-.3115234Z"/>
        <path class="st3" d="M198.0498047,21.107605c-.9238281,0-1.6455078-.2695312-2.1669922-.8085938s-.78125-1.28125-.78125-2.2265625c0-.9697266.2412109-1.7324219.7246094-2.2871094.4833984-.5556641,1.1474609-.8330078,1.9921875-.8330078.7851562,0,1.4042969.2382812,1.859375.7138672.4541016.4765625.6816406,1.1318359.6816406,1.9667969v.6816406h-3.9589844c.0185547.5761719.1738281,1.0195312.4677734,1.3291016s.7070312.4648438,1.2412109.4648438c.3505859,0,.6777344-.0332031.9804688-.0996094.3017578-.0664062.6269531-.1757812.9746094-.3300781v1.0263672c-.3085938.1464844-.6201172.25-.9355469.3105469-.3144531.0615234-.6738281.0917969-1.0791016.0917969ZM197.8183594,15.9083862c-.4003906,0-.7226562.1269531-.9628906.3808594-.2421875.2548828-.3867188.625-.4335938,1.1123047h2.6972656c-.0078125-.4902344-.1259766-.8623047-.3554688-1.1142578-.2285156-.2529297-.5439453-.3789062-.9453125-.3789062Z"/>
        <path class="st3" d="M203.796875,21.107605c-.7412109,0-1.3193359-.2685547-1.734375-.8056641-.4160156-.5371094-.6230469-1.2910156-.6230469-2.2607422,0-.9746094.2099609-1.7324219.6308594-2.2753906.4199219-.5419922,1.0039062-.8134766,1.7480469-.8134766.78125,0,1.375.2880859,1.7832031.8642578h.0644531c-.0605469-.4257812-.0917969-.7617188-.0917969-1.0097656v-2.1640625h1.2675781v8.3574219h-.9882812l-.2197266-.7792969h-.0595703c-.4042969.5917969-.9960938.8867188-1.7773438.8867188ZM204.1347656,20.0870972c.5195312,0,.8974609-.1455078,1.1337891-.4375s.3583984-.765625.3652344-1.4208984v-.1777344c0-.7480469-.1220703-1.2792969-.3652344-1.5947266s-.625-.4726562-1.1435547-.4726562c-.4443359,0-.7871094.1796875-1.0263672.5400391-.2392578.359375-.3603516.8730469-.3603516,1.5390625,0,.6582031.1171875,1.1601562.3496094,1.5058594s.5820312.5185547,1.046875.5185547Z"/>
        <path class="st3" d="M214.5390625,14.9523315c.7412109,0,1.3183594.2685547,1.7324219.8056641s.6201172,1.2910156.6201172,2.2617188c0,.9736328-.2099609,1.7314453-.6279297,2.2744141-.4199219.5419922-1.0019531.8134766-1.7460938.8134766-.7519531,0-1.3359375-.2705078-1.7509766-.8105469h-.0859375l-.2314453.703125h-.9453125v-8.3574219h1.2626953v1.9873047c0,.1464844-.0068359.3652344-.0214844.6552734s-.0244141.4746094-.0322266.5527344h.0537109c.4013672-.5898438.9912109-.8857422,1.7724609-.8857422ZM214.2109375,15.9835815c-.5078125,0-.8740234.1494141-1.0976562.4482422-.2246094.2988281-.3398438.7998047-.3466797,1.5019531v.0859375c0,.7226562.1142578,1.2460938.34375,1.5703125s.6035156.4863281,1.1220703.4863281c.4482422,0,.7871094-.1777344,1.0175781-.53125.2324219-.3554688.3476562-.8671875.3476562-1.5371094,0-1.3496094-.4628906-2.0244141-1.3867188-2.0244141Z"/>
        <path class="st3" d="M217.4550781,15.0597534h1.375l1.2089844,3.3681641c.1826172.4794922.3046875.9306641.3652344,1.3535156h.0429688c.0322266-.1972656.0917969-.4365234.1777344-.7177734s.5400391-1.6152344,1.3632812-4.0039062h1.3652344l-2.5410156,6.7294922c-.4619141,1.2363281-1.2324219,1.8535156-2.3095703,1.8535156-.2792969,0-.5517578-.0302734-.8164062-.0917969v-.9980469c.1904297.0429688.40625.0644531.6494141.0644531.609375,0,1.0371094-.3535156,1.2841797-1.0585938l.2197266-.5585938-2.3847656-5.9404297Z"/>
      </g>
      <g class="st1">
        <path class="st0" d="M227.1992188,21.0001831v-7.8525391h1.6640625v6.4775391h3.1855469v1.375h-4.8496094Z"/>
        <path class="st0" d="M237.0976562,21.0001831l-.3164062-.8164062h-.0429688c-.2763672.3476562-.5605469.5878906-.8515625.7226562-.2919922.1337891-.671875.2011719-1.1416016.2011719-.5771484,0-1.0302734-.1650391-1.3613281-.4941406s-.4970703-.7988281-.4970703-1.4072266c0-.6376953.2226562-1.1074219.6689453-1.4101562.4453125-.3027344,1.1181641-.4697266,2.0166016-.5019531l1.0419922-.0322266v-.2636719c0-.6083984-.3115234-.9121094-.9345703-.9121094-.4804688,0-1.0439453.1445312-1.6914062.4345703l-.5429688-1.1064453c.6914062-.3613281,1.4570312-.5429688,2.2988281-.5429688.8056641,0,1.4238281.1757812,1.8535156.5273438.4296875.3505859.6445312.8837891.6445312,1.5996094v4.0019531h-1.1445312ZM236.6142578,18.2179565l-.6337891.0214844c-.4765625.0146484-.8300781.1005859-1.0634766.2578125s-.3486328.3974609-.3486328.7197266c0,.4580078.2626953.6875.7890625.6875.3759766,0,.6767578-.1074219.9013672-.3222656.2255859-.2148438.3388672-.5.3388672-.8535156v-.5107422Z"/>
        <path class="st0" d="M243.484375,19.8390503c.3076172,0,.6767578-.0673828,1.1064453-.203125v1.1279297c-.4375.1962891-.9755859.2949219-1.6113281.2949219-.7021484,0-1.2128906-.1777344-1.53125-.53125-.3193359-.3544922-.4785156-.8867188-.4785156-1.5957031v-3.09375h-.8378906v-.6396484l.9628906-.5048828.5048828-1.3535156h1.015625v1.3642578h1.7939453v1.1337891h-1.7939453v3.09375c0,.2509766.0703125.4365234.2099609.5585938s.3251953.1826172.5585938.1826172Z"/>
        <path class="st0" d="M251.1308594,18.0197144c0,.9697266-.25,1.7275391-.7470703,2.2714844-.4980469.5449219-1.1904297.8164062-2.0791016.8164062-.5556641,0-1.0458984-.125-1.4716797-.3759766s-.7539062-.6103516-.9824219-1.0791016c-.2294922-.4697266-.3447266-1.0136719-.3447266-1.6328125,0-.9638672.2470703-1.7158203.7421875-2.2558594.4931641-.5410156,1.1904297-.8115234,2.0888672-.8115234.859375,0,1.5400391.2763672,2.0410156.8300781.5019531.5527344.7529297,1.2988281.7529297,2.2373047ZM246.8066406,18.0197144c0,1.3710938.5058594,2.0566406,1.5195312,2.0566406,1.0019531,0,1.5029297-.6855469,1.5029297-2.0566406,0-1.3574219-.5039062-2.0361328-1.5136719-2.0361328-.5292969,0-.9130859.1757812-1.1513672.5263672-.2392578.3505859-.3574219.8535156-.3574219,1.5097656Z"/>
        <path class="st0" d="M255.4707031,14.9523315c.2548828,0,.4638672.0175781.6289062.0537109l-.1240234,1.1757812c-.1796875-.0429688-.3662109-.0644531-.5595703-.0644531-.5039062,0-.9130859.1650391-1.2265625.4941406-.3144531.3300781-.4707031.7578125-.4707031,1.2841797v3.1044922h-1.2626953v-5.9404297h.9892578l.1660156,1.0478516h.0644531c.1962891-.3554688.4541016-.6357422.7705078-.84375.3173828-.2080078.6591797-.3115234,1.0244141-.3115234Z"/>
        <path class="st0" d="M259.7451172,21.107605c-.9238281,0-1.6464844-.2695312-2.1669922-.8085938-.5214844-.5390625-.78125-1.28125-.78125-2.2265625,0-.9697266.2412109-1.7324219.7246094-2.2871094.4833984-.5556641,1.1474609-.8330078,1.9921875-.8330078.7851562,0,1.4042969.2382812,1.859375.7138672.4541016.4765625.6816406,1.1318359.6816406,1.9667969v.6816406h-3.9589844c.0175781.5761719.1738281,1.0195312.4677734,1.3291016.2939453.3095703.7070312.4648438,1.2402344.4648438.3515625,0,.6787109-.0332031.9804688-.0996094.3027344-.0664062.6279297-.1757812.9755859-.3300781v1.0263672c-.3085938.1464844-.6201172.25-.9355469.3105469-.3144531.0615234-.6748047.0917969-1.0800781.0917969ZM259.5146484,15.9083862c-.4003906,0-.7216797.1269531-.9628906.3808594-.2421875.2548828-.3867188.625-.4335938,1.1123047h2.6962891c-.0068359-.4902344-.125-.8623047-.3544922-1.1142578-.2285156-.2529297-.5439453-.3789062-.9453125-.3789062Z"/>
        <path class="st0" d="M267.7832031,21.107605c-.9667969,0-1.7226562-.2666016-2.2675781-.8007812-.5439453-.5332031-.8164062-1.2890625-.8164062-2.265625,0-1.0068359.2519531-1.7841797.7558594-2.3339844.5019531-.5498047,1.1972656-.8242188,2.0859375-.8242188.8486328,0,1.5097656.2412109,1.9824219.7246094s.7089844,1.1513672.7089844,2.0039062v.7949219h-3.8730469c.0175781.4648438.15625.828125.4140625,1.0898438s.6191406.3925781,1.0839844.3925781c.3623047,0,.7041016-.0380859,1.0263672-.1132812s.6591797-.1953125,1.0097656-.359375v1.2675781c-.2861328.1425781-.5927734.2490234-.9189453.3193359-.3251953.0693359-.7226562.1044922-1.1914062.1044922ZM267.5517578,16.0480347c-.3466797,0-.6201172.1103516-.8164062.3300781-.1962891.2207031-.3095703.5332031-.3388672.9375h2.2988281c-.0068359-.4042969-.1123047-.7167969-.3164062-.9375-.2041016-.2197266-.4804688-.3300781-.8271484-.3300781Z"/>
      </g>
    </g>
    <g id="Line_9">
      <rect class="st3" x="149.5" y="8.5001831" width="2" height="16"/>
    </g>
    <g id="Group_49">
      <g id="Rectangle_160">
        <rect class="st0" y="5" width="5" height="22"/>
      </g>
      <g id="Rectangle_161">
        <rect class="st0" x="27" y="5" width="5" height="22"/>
      </g>
      <g id="Rectangle_162">
        <rect class="st0" x="5" y="0" width="22" height="5"/>
      </g>
      <g id="Rectangle_163">
        <rect class="st0" x="5" y="27" width="22" height="5"/>
      </g>
      <g id="Rectangle_164">
        <rect class="st2" x="20" y="7" width="5" height="5"/>
      </g>
      <g id="PixelSeek" class="st1">
        <g class="st1">
          <path class="st0" d="M39.6005859,23.0001831V7.2521362h5.1025391c1.9335938,0,3.1938477.0791016,3.78125.2363281.9023438.2363281,1.6577148.75,2.2666016,1.5410156.6083984.7919922.9130859,1.8144531.9130859,3.0673828,0,.9667969-.1757812,1.7792969-.5263672,2.4384766-.3510742.6591797-.796875,1.1757812-1.3374023,1.5527344-.5410156.375-1.090332.6240234-1.6489258.7460938-.7592773.1503906-1.8583984.2255859-3.2978516.2255859h-2.0732422v5.9404297h-3.1796875ZM42.7802734,9.9161987v4.46875h1.7402344c1.2529297,0,2.0908203-.0820312,2.5136719-.2470703.4223633-.1650391.753418-.4228516.9936523-.7734375.2397461-.3505859.3598633-.7587891.3598633-1.2246094,0-.5732422-.168457-1.0458984-.5048828-1.4179688-.3369141-.3720703-.7626953-.6054688-1.2783203-.6982422-.3798828-.0712891-1.1425781-.1074219-2.2880859-.1074219h-1.5361328Z"/>
          <path class="st0" d="M54.2529297,10.045105v-2.7929688h3.0185547v2.7929688h-3.0185547ZM54.2529297,23.0001831v-11.4082031h3.0185547v11.4082031h-3.0185547Z"/>
          <path class="st0" d="M58.9150391,23.0001831l4.1142578-5.8759766-3.9423828-5.5322266h3.6845703l2.0195312,3.1367188,2.1269531-3.1367188h3.5449219l-3.8671875,5.4033203,4.2216797,6.0048828h-3.7060547l-2.3203125-3.5341797-2.3417969,3.5341797h-3.5341797Z"/>
          <path class="st0" d="M79.2070312,19.3693237l3.0078125.5048828c-.3867188,1.1025391-.9975586,1.9423828-1.831543,2.5185547-.8344727.5771484-1.878418.8652344-3.1313477.8652344-1.9838867,0-3.4521484-.6484375-4.4042969-1.9443359-.7519531-1.0380859-1.1279297-2.3486328-1.1279297-3.9316406,0-1.890625.4941406-3.3710938,1.4824219-4.4423828.9882812-1.0703125,2.237793-1.6054688,3.7490234-1.6054688,1.6972656,0,3.0361328.5605469,4.0175781,1.6816406.980957,1.1201172,1.4501953,2.8369141,1.4072266,5.1503906h-7.5625c.0214844.8955078.2646484,1.5917969.7304688,2.0898438.465332.4970703,1.0454102.7460938,1.7402344.7460938.4726562,0,.8701172-.1289062,1.1923828-.3867188s.5654297-.6728516.7304688-1.2460938ZM79.3789062,16.3185425c-.0214844-.8740234-.2470703-1.5380859-.6767578-1.9921875-.4296875-.4550781-.9526367-.6826172-1.5683594-.6826172-.6591797,0-1.203125.2402344-1.6328125.7197266s-.6411133,1.1318359-.6337891,1.9550781h4.5117188Z"/>
          <path class="st0" d="M84.8359375,23.0001831V7.2521362h3.0185547v15.7480469h-3.0185547Z"/>
        </g>
        <g class="st1">
          <path class="st2" d="M90.3574219,17.9406128l1.9658203-.171875c.0927734.7880859.3095703,1.4345703.6499023,1.9384766.3398438.5058594.8681641.9140625,1.5844727,1.2246094.7158203.3125,1.5214844.4677734,2.4169922.4677734.7949219,0,1.496582-.1181641,2.1054688-.3544922.6083984-.2363281,1.0615234-.5605469,1.3588867-.9726562.296875-.4111328.4458008-.8603516.4458008-1.3476562,0-.4941406-.1435547-.9257812-.4296875-1.2949219-.2866211-.3681641-.7592773-.6777344-1.4179688-.9287109-.4228516-.1650391-1.3574219-.4208984-2.8037109-.7685547-1.4467773-.3466797-2.4599609-.6748047-3.0400391-.9824219-.7519531-.3935547-1.3125-.8828125-1.6811523-1.4667969-.3691406-.5830078-.5532227-1.2363281-.5532227-1.9599609,0-.7949219.2255859-1.5380859.6767578-2.2294922.4511719-.6904297,1.1098633-1.2148438,1.9765625-1.5732422.8662109-.3583984,1.8295898-.5371094,2.8896484-.5371094,1.1669922,0,2.1967773.1884766,3.0883789.5634766.8916016.3769531,1.5771484.9296875,2.0571289,1.6601562.4794922.7304688.7373047,1.5576172.7734375,2.4814453l-1.9980469.1503906c-.1074219-.9951172-.4711914-1.7470703-1.090332-2.2558594-.6196289-.5087891-1.534668-.7626953-2.7446289-.7626953-1.2607422,0-2.1791992.2304688-2.7553711.6933594-.5766602.4609375-.8647461,1.0185547-.8647461,1.6699219,0,.5654297.2041016,1.03125.6123047,1.3964844.4008789.3652344,1.4482422.7392578,3.1420898,1.1230469,1.6933594.3828125,2.8554688.7177734,3.4858398,1.0039062.9165039.4228516,1.5932617.9580078,2.0302734,1.6054688.4365234.6484375.6552734,1.3955078.6552734,2.2402344,0,.8378906-.2402344,1.6269531-.7197266,2.3691406-.4799805.7402344-1.1694336,1.3173828-2.0678711,1.7285156-.8989258.4121094-1.9106445.6181641-3.034668.6181641-1.425293,0-2.6196289-.2080078-3.5825195-.6230469-.9633789-.4150391-1.71875-1.0400391-2.2666016-1.8740234-.5478516-.8349609-.8364258-1.7783203-.8647461-2.8310547Z"/>
          <path class="st2" d="M113.3027344,19.326355l1.9980469.2470703c-.3154297,1.1669922-.8989258,2.0732422-1.7509766,2.7177734-.8525391.6445312-1.940918.9667969-3.265625.9667969-1.6689453,0-2.9916992-.5136719-3.9692383-1.5410156-.9775391-1.0283203-1.4663086-2.4697266-1.4663086-4.3242188,0-1.9189453.4941406-3.4091797,1.4824219-4.46875s2.2700195-1.5898438,3.8457031-1.5898438c1.5253906,0,2.7714844.5195312,3.7382812,1.5576172s1.4501953,2.4990234,1.4501953,4.3828125c0,.1142578-.0039062.2861328-.0107422.515625h-8.5078125c.0712891,1.2529297.4257812,2.2128906,1.0634766,2.8789062.637207.6660156,1.4321289.9990234,2.3847656.9990234.7089844,0,1.3139648-.1865234,1.8154297-.5585938.5009766-.3720703.8984375-.9667969,1.1923828-1.7832031ZM106.9541016,16.2003784h6.3701172c-.0859375-.9599609-.3295898-1.6796875-.7304688-2.1591797-.6162109-.7451172-1.4145508-1.1171875-2.3955078-1.1171875-.8881836,0-1.6347656.296875-2.2397461.8916016-.6054688.5947266-.9399414,1.3896484-1.0043945,2.3847656Z"/>
          <path class="st2" d="M125.5380859,19.326355l1.9980469.2470703c-.3154297,1.1669922-.8989258,2.0732422-1.7509766,2.7177734-.8525391.6445312-1.940918.9667969-3.265625.9667969-1.6689453,0-2.9916992-.5136719-3.9692383-1.5410156-.9775391-1.0283203-1.4663086-2.4697266-1.4663086-4.3242188,0-1.9189453.4941406-3.4091797,1.4824219-4.46875s2.2700195-1.5898438,3.8457031-1.5898438c1.5253906,0,2.7714844.5195312,3.7382812,1.5576172s1.4501953,2.4990234,1.4501953,4.3828125c0,.1142578-.0039062.2861328-.0107422.515625h-8.5078125c.0712891,1.2529297.4257812,2.2128906,1.0634766,2.8789062.637207.6660156,1.4321289.9990234,2.3847656.9990234.7089844,0,1.3139648-.1865234,1.8154297-.5585938.5009766-.3720703.8984375-.9667969,1.1923828-1.7832031ZM119.1894531,16.2003784h6.3701172c-.0859375-.9599609-.3295898-1.6796875-.7304688-2.1591797-.6162109-.7451172-1.4145508-1.1171875-2.3955078-1.1171875-.8881836,0-1.6347656.296875-2.2397461.8916016-.6054688.5947266-.9399414,1.3896484-1.0043945,2.3847656Z"/>
          <path class="st2" d="M129.9746094,23.0001831V7.2521362h1.9335938v8.9804688l4.5761719-4.640625h2.5029297l-4.3613281,4.2324219,4.8017578,7.1757812h-2.3847656l-3.7705078-5.8330078-1.3642578,1.3105469v4.5224609h-1.9335938Z"/>
        </g>
      </g>
    </g>
  </g>
</svg>
