<?xml version="1.0" encoding="UTF-8"?>
<svg id="Layer_1" xmlns="http://www.w3.org/2000/svg" version="1.1" viewBox="0 0 271.5759319 32">
  <defs>
    <style>
      .st0 {
        fill: #2c2c2c;
      }

      .st1 {
        isolation: isolate;
      }

      .st2 {
        fill: #8341ff;
      }

      .st3 {
        fill: #b2b2b2;
      }
    </style>
  </defs>
  <g id="Group_50">
    <g id="Powered_by_LaTrobe" class="st1">
      <text class="st3" x="161.8" y="19.35" font-family="'Helvetica Neue', Helvetica, Arial, sans-serif" font-size="8.9px" font-weight="500">Powered by LaTrobe</text>
    </g>
    <g id="Line_9">
      <rect class="st3" x="149.5" y="8.5001831" width="2" height="16"/>
    </g>
    <g id="Group_49">
      <g id="Rectangle_160">
        <rect class="st0" y="5" width="5" height="22"/>
      </g>
      <g id="Rectangle_161">
        <rect class="st0" x="27" y="5" width="5" height="22"/>
      </g>
      <g id="Rectangle_162">
        <rect class="st0" x="5" y="0" width="22" height="5"/>
      </g>
      <g id="Rectangle_163">
        <rect class="st0" x="5" y="27" width="22" height="5"/>
      </g>
      <g id="Rectangle_164">
        <rect class="st2" x="20" y="7" width="5" height="5"/>
      </g>
      <g id="PixelSeek" class="st1">
        <g class="st1">
          <path class="st0" d="M39.6005859,23.0001831V7.2521362h5.1025391c1.9335938,0,3.1938477.0791016,3.78125.2363281.9023438.2363281,1.6577148.75,2.2666016,1.5410156.6083984.7919922.9130859,1.8144531.9130859,3.0673828,0,.9667969-.1757812,1.7792969-.5263672,2.4384766-.3510742.6591797-.796875,1.1757812-1.3374023,1.5527344-.5410156.375-1.090332.6240234-1.6489258.7460938-.7592773.1503906-1.8583984.2255859-3.2978516.2255859h-2.0732422v5.9404297h-3.1796875ZM42.7802734,9.9161987v4.46875h1.7402344c1.2529297,0,2.0908203-.0820312,2.5136719-.2470703.4223633-.1650391.753418-.4228516.9936523-.7734375.2397461-.3505859.3598633-.7587891.3598633-1.2246094,0-.5732422-.168457-1.0458984-.5048828-1.4179688-.3369141-.3720703-.7626953-.6054688-1.2783203-.6982422-.3798828-.0712891-1.1425781-.1074219-2.2880859-.1074219h-1.5361328Z"/>
          <path class="st0" d="M54.2529297,10.045105v-2.7929688h3.0185547v2.7929688h-3.0185547ZM54.2529297,23.0001831v-11.4082031h3.0185547v11.4082031h-3.0185547Z"/>
          <path class="st0" d="M58.9150391,23.0001831l4.1142578-5.8759766-3.9423828-5.5322266h3.6845703l2.0195312,3.1367188,2.1269531-3.1367188h3.5449219l-3.8671875,5.4033203,4.2216797,6.0048828h-3.7060547l-2.3203125-3.5341797-2.3417969,3.5341797h-3.5341797Z"/>
          <path class="st0" d="M79.2070312,19.3693237l3.0078125.5048828c-.3867188,1.1025391-.9975586,1.9423828-1.831543,2.5185547-.8344727.5771484-1.878418.8652344-3.1313477.8652344-1.9838867,0-3.4521484-.6484375-4.4042969-1.9443359-.7519531-1.0380859-1.1279297-2.3486328-1.1279297-3.9316406,0-1.890625.4941406-3.3710938,1.4824219-4.4423828.9882812-1.0703125,2.237793-1.6054688,3.7490234-1.6054688,1.6972656,0,3.0361328.5605469,4.0175781,1.6816406.980957,1.1201172,1.4501953,2.8369141,1.4072266,5.1503906h-7.5625c.0214844.8955078.2646484,1.5917969.7304688,2.0898438.465332.4970703,1.0454102.7460938,1.7402344.7460938.4726562,0,.8701172-.1289062,1.1923828-.3867188s.5654297-.6728516.7304688-1.2460938ZM79.3789062,16.3185425c-.0214844-.8740234-.2470703-1.5380859-.6767578-1.9921875-.4296875-.4550781-.9526367-.6826172-1.5683594-.6826172-.6591797,0-1.203125.2402344-1.6328125.7197266s-.6411133,1.1318359-.6337891,1.9550781h4.5117188Z"/>
          <path class="st0" d="M84.8359375,23.0001831V7.2521362h3.0185547v15.7480469h-3.0185547Z"/>
        </g>
        <g class="st1">
          <path class="st2" d="M90.3574219,17.9406128l1.9658203-.171875c.0927734.7880859.3095703,1.4345703.6499023,1.9384766.3398438.5058594.8681641.9140625,1.5844727,1.2246094.7158203.3125,1.5214844.4677734,2.4169922.4677734.7949219,0,1.496582-.1181641,2.1054688-.3544922.6083984-.2363281,1.0615234-.5605469,1.3588867-.9726562.296875-.4111328.4458008-.8603516.4458008-1.3476562,0-.4941406-.1435547-.9257812-.4296875-1.2949219-.2866211-.3681641-.7592773-.6777344-1.4179688-.9287109-.4228516-.1650391-1.3574219-.4208984-2.8037109-.7685547-1.4467773-.3466797-2.4599609-.6748047-3.0400391-.9824219-.7519531-.3935547-1.3125-.8828125-1.6811523-1.4667969-.3691406-.5830078-.5532227-1.2363281-.5532227-1.9599609,0-.7949219.2255859-1.5380859.6767578-2.2294922.4511719-.6904297,1.1098633-1.2148438,1.9765625-1.5732422.8662109-.3583984,1.8295898-.5371094,2.8896484-.5371094,1.1669922,0,2.1967773.1884766,3.0883789.5634766.8916016.3769531,1.5771484.9296875,2.0571289,1.6601562.4794922.7304688.7373047,1.5576172.7734375,2.4814453l-1.9980469.1503906c-.1074219-.9951172-.4711914-1.7470703-1.090332-2.2558594-.6196289-.5087891-1.534668-.7626953-2.7446289-.7626953-1.2607422,0-2.1791992.2304688-2.7553711.6933594-.5766602.4609375-.8647461,1.0185547-.8647461,1.6699219,0,.5654297.2041016,1.03125.6123047,1.3964844.4008789.3652344,1.4482422.7392578,3.1420898,1.1230469,1.6933594.3828125,2.8554688.7177734,3.4858398,1.0039062.9165039.4228516,1.5932617.9580078,2.0302734,1.6054688.4365234.6484375.6552734,1.3955078.6552734,2.2402344,0,.8378906-.2402344,1.6269531-.7197266,2.3691406-.4799805.7402344-1.1694336,1.3173828-2.0678711,1.7285156-.8989258.4121094-1.9106445.6181641-3.034668.6181641-1.425293,0-2.6196289-.2080078-3.5825195-.6230469-.9633789-.4150391-1.71875-1.0400391-2.2666016-1.8740234-.5478516-.8349609-.8364258-1.7783203-.8647461-2.8310547Z"/>
          <path class="st2" d="M113.3027344,19.326355l1.9980469.2470703c-.3154297,1.1669922-.8989258,2.0732422-1.7509766,2.7177734-.8525391.6445312-1.940918.9667969-3.265625.9667969-1.6689453,0-2.9916992-.5136719-3.9692383-1.5410156-.9775391-1.0283203-1.4663086-2.4697266-1.4663086-4.3242188,0-1.9189453.4941406-3.4091797,1.4824219-4.46875s2.2700195-1.5898438,3.8457031-1.5898438c1.5253906,0,2.7714844.5195312,3.7382812,1.5576172s1.4501953,2.4990234,1.4501953,4.3828125c0,.1142578-.0039062.2861328-.0107422.515625h-8.5078125c.0712891,1.2529297.4257812,2.2128906,1.0634766,2.8789062.637207.6660156,1.4321289.9990234,2.3847656.9990234.7089844,0,1.3139648-.1865234,1.8154297-.5585938.5009766-.3720703.8984375-.9667969,1.1923828-1.7832031ZM106.9541016,16.2003784h6.3701172c-.0859375-.9599609-.3295898-1.6796875-.7304688-2.1591797-.6162109-.7451172-1.4145508-1.1171875-2.3955078-1.1171875-.8881836,0-1.6347656.296875-2.2397461.8916016-.6054688.5947266-.9399414,1.3896484-1.0043945,2.3847656Z"/>
          <path class="st2" d="M125.5380859,19.326355l1.9980469.2470703c-.3154297,1.1669922-.8989258,2.0732422-1.7509766,2.7177734-.8525391.6445312-1.940918.9667969-3.265625.9667969-1.6689453,0-2.9916992-.5136719-3.9692383-1.5410156-.9775391-1.0283203-1.4663086-2.4697266-1.4663086-4.3242188,0-1.9189453.4941406-3.4091797,1.4824219-4.46875s2.2700195-1.5898438,3.8457031-1.5898438c1.5253906,0,2.7714844.5195312,3.7382812,1.5576172s1.4501953,2.4990234,1.4501953,4.3828125c0,.1142578-.0039062.2861328-.0107422.515625h-8.5078125c.0712891,1.2529297.4257812,2.2128906,1.0634766,2.8789062.637207.6660156,1.4321289.9990234,2.3847656.9990234.7089844,0,1.3139648-.1865234,1.8154297-.5585938.5009766-.3720703.8984375-.9667969,1.1923828-1.7832031ZM119.1894531,16.2003784h6.3701172c-.0859375-.9599609-.3295898-1.6796875-.7304688-2.1591797-.6162109-.7451172-1.4145508-1.1171875-2.3955078-1.1171875-.8881836,0-1.6347656.296875-2.2397461.8916016-.6054688.5947266-.9399414,1.3896484-1.0043945,2.3847656Z"/>
          <path class="st2" d="M129.9746094,23.0001831V7.2521362h1.9335938v8.9804688l4.5761719-4.640625h2.5029297l-4.3613281,4.2324219,4.8017578,7.1757812h-2.3847656l-3.7705078-5.8330078-1.3642578,1.3105469v4.5224609h-1.9335938Z"/>
        </g>
      </g>
    </g>
  </g>
</svg>
